<?xml version="1.0" encoding="UTF-8"?>
<svg width="157px" height="50px" viewBox="0 0 157 50" version="1.1" xmlns="http://www.w3.org/2000/svg" xmlns:xlink="http://www.w3.org/1999/xlink">
    <!-- Generator: Sketch 42 (36781) - http://www.bohemiancoding.com/sketch -->
    <title>logo_unum_reverse</title>
    <desc>Created with Sketch.</desc>
    <defs></defs>
    <g id="Page-1" stroke="none" stroke-width="1" fill="none" fill-rule="evenodd">
        <g id="logo_unum_reverse" fill-rule="nonzero" fill="#FFFFFF">
            <g id="Page-1">
                <g id="logo_unum_reverse">
                    <path d="M83.9560496,49.9315431 C96.4750019,49.9315431 99.2959084,41.7886041 99.2959084,36.198337 L99.2959084,19.7361232 L90.0655668,19.7361232 L90.0655668,35.5706652 C90.0655668,39.9118866 87.6284714,41.8095965 83.9560496,41.8095965 C80.2752385,41.8095965 77.8402405,39.9118866 77.8402405,35.5706652 L77.8402405,19.7361232 L68.6098989,19.7361232 L68.6098989,36.198337 C68.6098989,41.7886041 71.428708,49.9315431 83.9560496,49.9315431" id="Fill-1"></path>
                    <path d="M15.3482481,49.9315431 C27.8692977,49.9315431 30.6902042,41.7886041 30.6902042,36.198337 L30.6902042,19.7361232 L21.4619599,19.7361232 L21.4619599,35.5706652 C21.4619599,39.9118866 19.0227672,41.8095965 15.3482481,41.8095965 C11.6695344,41.8095965 9.22824427,39.9118866 9.22824427,35.5706652 L9.22824427,19.7361232 L0,19.7361232 L0,36.198337 C0,41.7886041 2.8292958,49.9315431 15.3482481,49.9315431" id="Fill-2"></path>
                    <path d="M49.6521489,18.5920393 C37.1290019,18.5920393 34.3039008,26.732879 34.3039008,32.3231461 L34.3039008,48.7853599 L43.5363397,48.7853599 L43.5363397,32.9466194 C43.5363397,28.6158942 45.9734351,26.7139858 49.6521489,26.7139858 C53.3287653,26.7139858 55.7637634,28.6158942 55.7637634,32.9466194 L55.7637634,48.7853599 L64.994105,48.7853599 L64.994105,32.3231461 C64.994105,26.732879 62.1711011,18.5920393 49.6521489,18.5920393" id="Fill-3"></path>
                    <path d="M126.963863,23.2565431 C126.56537,22.7254362 124.212168,18.5920393 116.659689,18.5920393 C108.966689,18.5920393 102.909605,22.4336423 102.909605,31.7164667 L102.909605,48.7853599 L111.932311,48.7853599 L111.932311,31.6996728 C111.932311,28.7082606 113.463361,26.4158942 117.188216,26.4158942 C120.92146,26.4158942 122.448315,28.7082606 122.448315,31.6996728 L122.448315,48.7853599 L131.473118,48.7853599 L131.473118,31.6996728 C131.473118,28.7082606 132.999973,26.4158942 136.729023,26.4158942 C140.46017,26.4158942 141.989122,28.7082606 141.989122,31.6996728 L141.989122,48.7853599 L151.007634,48.7853599 L151.007634,31.7164667 C151.007634,22.4336423 144.948452,18.5920393 137.259647,18.5920393 C129.717655,18.5920393 127.35816,22.7254362 126.963863,23.2565431" id="Fill-4"></path>
                    <path d="M42.0619179,7.49547437 C42.0619179,11.6939477 45.4176431,14.9225736 49.6479542,14.9225736 C53.838416,14.9225736 57.1333187,11.6939477 57.1333187,7.49547437 C57.1333187,3.3032988 53.838416,0.0767720829 49.6479542,0.0767720829 C45.4176431,0.0767720829 42.0619179,3.3032988 42.0619179,7.49547437" id="Fill-5"></path>
                    <path d="M76.3595267,7.49547437 C76.3595267,11.6939477 79.7194466,14.9225736 83.951855,14.9225736 C88.1402195,14.9225736 91.4351221,11.6939477 91.4351221,7.49547437 C91.4351221,3.3032988 88.1402195,0.0767720829 83.951855,0.0767720829 C79.7194466,0.0767720829 76.3595267,3.3032988 76.3595267,7.49547437" id="Fill-6"></path>
                    <path d="M119.371534,7.49547437 C119.371534,11.6939477 122.731454,14.9225736 126.963863,14.9225736 C131.152227,14.9225736 134.44713,11.6939477 134.44713,7.49547437 C134.44713,3.3032988 131.152227,0.0767720829 126.963863,0.0767720829 C122.731454,0.0767720829 119.371534,3.3032988 119.371534,7.49547437" id="Fill-7"></path>
                    <path d="M153.637683,19.5282988 C153.501357,19.5282988 153.375517,19.5555889 153.276943,19.582879 L153.276943,20.8970011 L153.555887,20.8970011 C154.050857,20.8970011 154.436765,20.7164667 154.436765,20.168566 C154.436765,19.654253 153.996326,19.5282988 153.637683,19.5282988 L153.637683,19.5282988 Z M154.52695,22.8954744 L153.386004,21.2391767 L153.276943,21.2391767 L153.276943,22.8954744 L152.765195,22.8954744 L152.765195,19.2952835 C153.006387,19.1777263 153.339863,19.104253 153.681727,19.104253 C154.436765,19.104253 154.967389,19.5282988 154.967389,20.168566 C154.967389,20.7878408 154.52695,21.1405125 153.933406,21.2013904 L155.14776,22.8954744 L154.52695,22.8954744 L154.52695,22.8954744 Z M153.807567,18.359024 C152.295393,18.359024 151.091527,19.5912759 151.091527,21.0943293 C151.091527,22.5889858 152.295393,23.8044438 153.807567,23.8044438 C155.309254,23.8044438 156.515218,22.5889858 156.515218,21.0943293 C156.515218,19.5912759 155.309254,18.359024 153.807567,18.359024 L153.807567,18.359024 Z M153.807567,24.2725736 C152.043714,24.2725736 150.623823,22.8597874 150.623823,21.0943293 C150.623823,19.3309706 152.043714,17.8992912 153.807567,17.8992912 C155.560933,17.8992912 156.991311,19.3309706 156.991311,21.0943293 C156.991311,22.8597874 155.560933,24.2725736 153.807567,24.2725736 L153.807567,24.2725736 Z" id="Fill-8"></path>
                </g>
            </g>
        </g>
    </g>
</svg>